<?xml version="1.0"?>
<svg width="202" height="202" xmlns="http://www.w3.org/2000/svg" xmlns:svg="http://www.w3.org/2000/svg" data-name="Camada 1">
 <g class="layer">
  <title>Layer 1</title>
  <g id="svg_4">
   <path d="m202.42,101.2a101.21,101.21 0 1 1 -101.21,-101.2a101.21,101.21 0 0 1 101.21,101.2z" fill="#3fa1ff" id="svg_1"/>
   <path d="m147.06,133.4l-18.12,-9.59l-13.47,1.74c-2.92,0.37 -4.93,-1.56 -4.48,-4.36l1,-6.35l-27.46,-14.56l1.49,-9.33l-16.94,-9l-10.72,1.38l-24.22,3.11c-2.91,0.39 -3.38,3.28 -1,6.43l19.52,26.3l19.5,26.28c2.36,3.18 4.62,3.5 5.06,0.72l2.54,-15.68l62.52,33.14c3,1.57 5.68,0.9 6.08,-1.5l3.4,-21.55c0.36,-2.39 -1.72,-5.6 -4.7,-7.18z" fill="#fff" id="svg_2"/>
   <path d="m169.68,105.54l-19.51,-26.29l-19.51,-26.29c-2.36,-3.18 -4.62,-3.5 -5.06,-0.72l-2.51,15.68l-62.52,-33.11c-3,-1.59 -5.68,-0.91 -6.08,1.49l-3.43,21.51c-0.37,2.39 1.7,5.6 4.69,7.18l62.51,33.14l-2.5,15.68c-0.45,2.81 1.56,4.74 4.49,4.36l24.19,-3.11l24.22,-3.12c2.91,-0.36 3.38,-3.24 1.02,-6.4z" fill="#fff" id="svg_3"/>
  </g>
 </g>
</svg>